<?xml version="1.0" encoding="utf-8"?><svg xmlns="http://www.w3.org/2000/svg" xmlns:xlink="http://www.w3.org/1999/xlink"><symbol viewBox="0 0 297 297" id="1-1" xmlns="http://www.w3.org/2000/svg"><path d="M132.335 92.134a7.224 7.224 0 00-11.652 0l-38.401 52.401a7.223 7.223 0 005.826 11.492h15.788v121.714a7.222 7.222 0 007.222 7.223h30.78a7.223 7.223 0 007.223-7.223V156.027h15.787a7.224 7.224 0 005.826-11.492l-38.399-52.401z"/><path d="M51.448 134.986a7.224 7.224 0 00-11.652 0l-38.4 52.401a7.223 7.223 0 005.826 11.492H23.01v78.862a7.222 7.222 0 007.222 7.223h30.78a7.223 7.223 0 007.223-7.223v-78.862h15.788a7.223 7.223 0 005.826-11.492l-38.401-52.401zM242.71 75.737c17.563 0 31.85-14.288 31.85-31.851s-14.288-31.85-31.85-31.85-31.851 14.288-31.851 31.85 14.289 31.851 31.851 31.851zm34.983 15.435l-.053-.018-9.091-2.789a2.822 2.822 0 00-3.481 1.732l-19.115 52.447c-1.103 3.026-5.382 3.026-6.485 0l-19.115-52.447a2.822 2.822 0 00-2.65-1.858c-.274 0-9.911 2.912-9.911 2.912-11.612 3.869-19.371 14.635-19.371 26.807v55.481c0 .551.161 1.09.464 1.55l19.945 30.352v76.799a2.823 2.823 0 002.823 2.823h62.115a2.823 2.823 0 002.823-2.823v-76.799l19.945-30.352c.302-.46.464-.999.464-1.55v-55.627a28.034 28.034 0 00-19.307-26.64z"/><path d="M251.017 86.05c-.879-.957-2.163-1.439-3.462-1.439h-9.69c-1.299 0-2.583.482-3.462 1.439a4.495 4.495 0 00-.592 5.295l5.18 7.809-2.425 20.456 4.775 12.702c.466 1.277 2.272 1.277 2.738 0l4.775-12.702-2.425-20.456 5.18-7.809a4.493 4.493 0 00-.592-5.295z"/></symbol><symbol viewBox="0 0 297 297" id="1-2" xmlns="http://www.w3.org/2000/svg"><path d="M208.769 46.059c12.699 0 23.03-10.331 23.03-23.03S221.467 0 208.769 0C196.07 0 185.74 10.33 185.74 23.029s10.33 23.03 23.029 23.03zm-26.353 85.426v46.393a6.962 6.962 0 006.963 6.963h38.781a6.962 6.962 0 006.963-6.963v-46.393l11.597-17.649a6.958 6.958 0 001.144-3.824V75.373a22.798 22.798 0 00-15.609-21.657l-5.83-1.79a6.969 6.969 0 00-5.591.666l-12.066 7.148-12.065-7.148a6.96 6.96 0 00-5.591-.666l-5.83 1.79a22.8 22.8 0 00-15.609 21.657v34.639c0 1.359.397 2.688 1.144 3.824l11.599 17.649zm64.564 67.177h-84.412a6.962 6.962 0 00-6.963 6.963v21.173h-49.311a6.962 6.962 0 00-6.963 6.963v21.174H50.02a6.962 6.962 0 00-6.963 6.963v28.138a6.962 6.962 0 006.963 6.963h196.96a6.962 6.962 0 006.963-6.963v-84.412a6.962 6.962 0 00-6.963-6.962z"/></symbol><symbol viewBox="0 0 290 290" id="1-3" xmlns="http://www.w3.org/2000/svg"><path d="M148.564 38.033h-19.438c-.766-14.686-12.955-26.399-27.828-26.399H37.431c-15.365 0-27.866 12.501-27.866 27.866v45.134c0 15.365 12.501 27.866 27.866 27.866h63.867c15.365 0 27.866-12.501 27.866-27.866V74.333l24.351-24.35a7 7 0 00-4.951-11.95zm74.186 29.653c18.661 0 33.843-15.182 33.843-33.843S241.411 0 222.75 0s-33.843 15.182-33.843 33.843 15.182 33.843 33.843 33.843zm37.171 16.4l-.057-.019-9.659-2.964a3 3 0 00-3.699 1.841l-20.311 55.728c-1.172 3.215-5.719 3.215-6.89 0l-20.311-55.728a2.999 2.999 0 00-3.695-1.842l-9.651 2.961c-12.339 4.111-20.583 15.55-20.583 28.484V171.5c0 .585.171 1.158.493 1.647l21.193 32.251V287a3 3 0 003 3h66a3 3 0 003-3v-81.603l21.193-32.251a3 3 0 00.493-1.647v-59.106a29.79 29.79 0 00-20.516-28.307z"/><path d="M230.182 80.422c-.786-.856-1.935-1.287-3.097-1.287h-8.67c-1.162 0-2.311.431-3.097 1.287a4.023 4.023 0 00-.53 4.738l4.634 6.987-2.17 18.302 4.272 11.365c.417 1.143 2.033 1.143 2.45 0l4.272-11.365-2.17-18.302 4.634-6.987a4.018 4.018 0 00-.528-4.738z"/></symbol><symbol viewBox="0 0 488.3 488.3" id="2-1" xmlns="http://www.w3.org/2000/svg"><path d="M386.3 51.5c-48.9 0-88.5 39.6-88.5 88.5 0 22.9 8.7 43.8 23 59.5-3.4 7.1-9 15.9-18 20.3-3 1.5-2.3 6 1 6.5 9.9 1.6 24.1-.2 37.4-10.2a88.24 88.24 0 0045 12.3c24.4 0 46.5-9.9 62.5-25.9L386.2 140V51.5h.1z"/><path d="M418.3 152l69.4-28.2c-.4-3.3-.9-6.5-1.6-9.7L411 144.7l7.3 7.3zm65.2-47.2c-1-3-2.2-6-3.6-8.9l-79.8 32.4v5.2l3.6 3.6 79.8-32.3zm-13.9-25.4l-69.4 28.2V118l75.1-30.6c-1.8-2.8-3.7-5.5-5.7-8zM455 64.6l-54.7 22.3v10.4L463 71.8c-2.5-2.6-5.2-5-8-7.2zm-20.6-12.3l-34 13.8v10.4l45.2-18.4c-3.6-2.2-7.3-4.2-11.2-5.8zm-33.9-6.9v10.4l19.8-8c-6.4-1.6-13-2.4-19.8-2.4zm61.6 150.9c4.7-4.6 8.8-9.8 12.4-15.4l-19.7 8 7.3 7.4zm-14.6-14.8l33.9-13.8c1.6-3.9 3-7.9 4.1-12l-45.3 18.4 7.3 7.4zm40.8-47.6l-62.7 25.5 7.3 7.4 54.7-22.2c.4-3.4.7-6.9.7-10.5v-.2zm-192.4 184c-41.6-15.9-66.5-32.1-66.5-32.1l-32 101.3-4.4 13.7-14.3-40.7c33-46-2.5-48.2-8.6-48.2h-.4c-6.1 0-41.6 2.2-8.6 48.2l-14.3 40.7-4.4-13.7-32-101.3S85.5 302 43.9 317.9C-1.9 334.5 1 372.2 0 442.9h339.8c-.9-70.7 1.9-108.4-43.9-125z"/><path d="M97.8 221.5c3.7 23.8 22 54.1 52.2 64.7 12.4 4.4 26 4.4 38.3-.1 29.7-10.7 48.7-40.9 52.3-64.6 4-.3 9.3-5.9 14.9-25.9 7.7-27.4-.5-31.4-7.4-30.8 1.3-3.8 2.3-7.5 3-11.3C262.9 82.6 228 80.1 228 80.1s-5.8-11.1-21-19.5c-10.2-6-24.4-10.7-43.2-9.1-6.1.3-11.8 1.5-17.2 3.3-6.9 2.3-13.2 5.7-18.9 9.7-7 4.4-13.6 9.9-19.5 16.1-9.2 9.4-17.5 21.7-21 36.9-3 11.4-2.3 23.3.2 36.1.7 3.7 1.7 7.5 3 11.3-7-.7-15.2 3.4-7.4 30.8 5.6 19.8 10.8 25.5 14.8 25.8z"/></symbol><symbol viewBox="0 0 300 300" id="2-2" xmlns="http://www.w3.org/2000/svg"><path d="M202.105 96.266a75.322 75.322 0 00-19.011-13.437c3.395 5.159 6.383 11.129 8.867 17.787a88.443 88.443 0 0010.144-4.35zm-89.502 48.547h32.207v-27.29c-9.625-.418-18.931-1.774-27.601-3.989-2.596 9.482-4.222 20.1-4.606 31.279zm3.976 39.14c8.862-2.324 18.394-3.758 28.231-4.194v-24.572h-32.205c.359 10.203 1.754 19.934 3.974 28.766zm3.833-80.287c7.648 1.904 15.87 3.079 24.398 3.47V75.3a74.434 74.434 0 00-4.464.444c-7.972 4.834-14.954 14.811-19.934 27.922zm-23.49 99.124a75.24 75.24 0 0023.456 15.989c-4.272-6.095-7.939-13.456-10.841-21.799-4.528 1.67-8.755 3.613-12.615 5.81zm23.366-121.53a75.133 75.133 0 00-21.586 14.239c3.613 1.937 7.521 3.639 11.656 5.125 2.74-7.348 6.094-13.863 9.93-19.364zm-13.093 29.219c-5.638-2.002-10.906-4.396-15.707-7.158-9.231 11.547-15.113 25.866-16.189 41.492h26.914c.381-12.359 2.13-23.952 4.982-34.334zm-4.979 44.708H75.3a74.485 74.485 0 0014.721 39.627c4.995-3.001 10.551-5.61 16.542-7.773-2.469-9.736-3.989-20.468-4.347-31.854zm38.32 69.096c1.413.176 2.837.319 4.274.418v-34.554c-8.831.415-17.359 1.681-25.262 3.719 5.056 14.383 12.46 25.341 20.988 30.417zM195.766 187c5.335 1.932 10.338 4.212 14.913 6.837 7.98-11.018 13.033-24.279 14.021-38.647h-24.595c-.357 11.367-1.872 22.087-4.339 31.81zm-12.755 30.213a75.286 75.286 0 0020.858-15.25c-3.439-1.849-7.156-3.507-11.095-4.954-2.659 7.627-5.953 14.436-9.763 20.204z"/><path d="M149.997 0C67.158 0 .003 67.161.003 149.997S67.158 300 149.997 300s150-67.163 150-150.003S232.837 0 149.997 0zM150 240.462c-49.88 0-90.462-40.579-90.462-90.462S100.12 59.538 150 59.538s90.462 40.579 90.462 90.462S199.88 240.462 150 240.462z"/><path d="M162.719 76.202a75.332 75.332 0 00-7.534-.903v31.937c9.334-.275 18.352-1.512 26.711-3.597-4.822-12.687-11.521-22.444-19.177-27.437zm32.402 34.269c2.856 10.382 4.604 21.981 4.985 34.342h24.592c-1.045-15.227-6.658-29.209-15.484-40.595-4.36 2.378-9.075 4.474-14.093 6.253zM155.185 224.7a75.032 75.032 0 007.368-.871c8.201-5.262 15.307-16.002 20.212-29.948-8.613-2.223-17.955-3.543-27.58-3.833V224.7zm29.917-111.192c-9.384 2.402-19.493 3.813-29.917 4.103v27.202h34.534c-.387-11.186-2.016-21.815-4.617-31.305zm4.614 41.679h-34.531v24.486c10.732.288 21.052 1.722 30.573 4.207 2.212-8.81 3.6-18.516 3.958-28.693z"/></symbol><symbol viewBox="0 0 24 24" id="2-3" xmlns="http://www.w3.org/2000/svg"><path d="M14.25 12h-4.5C8.785 12 8 11.215 8 10.25v-8.5C8 .785 8.785 0 9.75 0h4.5C15.215 0 16 .785 16 1.75v8.5c0 .965-.785 1.75-1.75 1.75zM5.501 9a.998.998 0 01-.801-.4l-1.5-2a.999.999 0 010-1.2l1.5-2a1 1 0 011.6 1.2L5.25 6 6.3 7.4A1 1 0 015.501 9zm12.998 0a1 1 0 01-.799-1.6L18.75 6 17.7 4.6a1 1 0 111.6-1.2l1.5 2a.999.999 0 010 1.2l-1.5 2a.998.998 0 01-.801.4z"/><path d="M22.25 4l.15.2a3 3 0 010 3.6l-.4.53V17H2V8.33l-.4-.53a3 3 0 010-3.6l.15-.2C.79 4 0 4.79 0 5.75v13.5C0 20.21.79 21 1.75 21h7.658c-.118.501-.429 1.314-1.262 2.146A.499.499 0 008.5 24h7a.5.5 0 00.354-.854c-.831-.831-1.151-1.644-1.275-2.146h7.671c.96 0 1.75-.79 1.75-1.75V5.75C24 4.79 23.21 4 22.25 4z"/></symbol></svg>