<svg id="bold" enable-background="new 0 0 24 24" height="512" viewBox="0 0 24 24" width="512" xmlns="http://www.w3.org/2000/svg"><path d="m14.25 12h-4.5c-.965 0-1.75-.785-1.75-1.75v-8.5c0-.965.785-1.75 1.75-1.75h4.5c.965 0 1.75.785 1.75 1.75v8.5c0 .965-.785 1.75-1.75 1.75z"/><path d="m5.501 9c-.304 0-.605-.138-.801-.4l-1.5-2c-.267-.355-.267-.845 0-1.2l1.5-2c.332-.441.958-.532 1.4-.2.442.331.531.958.2 1.4l-1.05 1.4 1.05 1.4c.332.442.242 1.069-.2 1.4-.18.135-.391.2-.599.2z"/><path d="m18.499 9c-.208 0-.419-.065-.599-.2-.442-.331-.531-.958-.2-1.4l1.05-1.4-1.05-1.4c-.332-.442-.242-1.069.2-1.4.443-.332 1.069-.241 1.4.2l1.5 2c.267.355.267.845 0 1.2l-1.5 2c-.196.262-.497.4-.801.4z"/><path d="m22.25 4 .15.2c.8 1.06.8 2.54 0 3.6l-.4.53v8.67h-20v-8.67l-.4-.53c-.8-1.06-.8-2.54 0-3.6l.15-.2c-.96 0-1.75.79-1.75 1.75v13.5c0 .96.79 1.75 1.75 1.75h7.658c-.118.501-.429 1.314-1.262 2.146-.143.143-.186.358-.108.545.077.187.26.309.462.309h7c.202 0 .385-.122.462-.309s.034-.402-.108-.545c-.831-.831-1.151-1.644-1.275-2.146h7.671c.96 0 1.75-.79 1.75-1.75v-13.5c0-.96-.79-1.75-1.75-1.75z"/></svg>